<?xml version="1.0" standalone="no"?>
<!DOCTYPE svg PUBLIC "-//W3C//DTD SVG 20010904//EN"
 "http://www.w3.org/TR/2001/REC-SVG-20010904/DTD/svg10.dtd">
<svg version="1.0" xmlns="http://www.w3.org/2000/svg"
 width="225.000000pt" height="225.000000pt" viewBox="0 0 225.000000 225.000000"
 preserveAspectRatio="xMidYMid meet">
<metadata>
Created by potrace 1.16, written by Peter Selinger 2001-2019
</metadata>
<g transform="translate(0.000000,225.000000) scale(0.100000,-0.100000)"
fill="#000000" stroke="none">
<path d="M618 1788 c-2 -19 -9 -23 -42 -23 -48 0 -70 -25 -44 -51 20 -20 48
-12 55 15 3 11 13 21 24 24 16 4 19 -1 20 -31 1 -21 0 -41 -1 -47 -7 -35 -10
-55 -7 -55 14 0 139 57 140 64 1 5 -9 16 -23 24 -25 16 -25 16 -7 -5 17 -20
17 -21 -3 -26 -11 -3 -18 -2 -15 2 2 4 -10 24 -26 44 -17 20 -26 37 -21 37 5
0 15 -7 22 -15 7 -8 18 -15 24 -15 6 0 3 5 -7 11 -9 5 -24 23 -32 39 -19 36
-52 40 -57 8z"/>
<path d="M1385 1647 c-40 -23 -53 -47 -53 -102 l0 -30 11 32 c16 42 22 46 44
34 39 -23 102 -39 106 -27 6 18 57 -15 57 -37 0 -10 9 -21 20 -24 33 -9 23
-39 -30 -93 -48 -50 -61 -75 -40 -82 5 -1 0 -15 -13 -30 -27 -33 -90 -43 -95
-16 -2 9 6 26 17 37 26 26 26 38 3 45 -10 4 -28 15 -39 25 -21 19 -21 19 -32
-36 -15 -76 -15 -77 16 -54 14 12 27 20 28 19 1 -2 -4 -38 -13 -81 -8 -42 -12
-80 -9 -83 9 -9 72 25 99 54 14 15 31 44 37 64 7 20 18 42 26 48 20 17 55 2
66 -28 14 -38 2 -120 -19 -125 -10 -3 16 -5 56 -6 57 -1 72 -4 72 -16 0 -8 1
-18 3 -22 1 -5 -32 -11 -73 -14 -53 -4 -25 -6 93 -7 l167 -1 0 34 0 35 -141 0
-142 0 7 88 c19 277 19 263 -4 325 -16 42 -31 64 -54 78 -44 27 -120 25 -171
-4z"/>
<path d="M590 1030 c0 -13 1076 -14 1085 0 4 7 -170 10 -539 10 -339 0 -546
-4 -546 -10z"/>
<path d="M330 670 l0 -300 25 0 25 0 0 300 0 300 -25 0 -25 0 0 -300z"/>
<path d="M1114 955 c-7 -17 0 -86 11 -120 6 -16 5 -17 -4 -5 -10 13 -12 13
-21 0 -15 -23 -12 -45 10 -65 28 -25 48 -13 47 29 -1 20 -6 36 -11 36 -6 1 4
7 22 15 49 21 62 11 62 -47 0 -50 0 -50 30 -46 24 4 30 1 30 -14 0 -14 8 -18
34 -18 l33 0 2 56 c1 69 4 74 43 74 l30 0 -3 -82 -4 -83 39 1 c23 1 44 8 51
17 6 9 30 17 55 19 24 2 45 9 48 16 3 9 -14 12 -61 12 -73 0 -85 12 -72 70 7
33 25 41 25 11 0 -11 10 -27 22 -35 35 -25 42 -19 11 8 -26 23 -27 26 -15 58
6 19 12 50 12 70 l0 35 -210 2 c-185 2 -211 0 -216 -14z"/>
<path d="M1630 956 c0 -9 -12 -16 -32 -18 -29 -3 -33 -7 -39 -40 l-6 -38 39 0
38 0 0 -245 0 -245 58 2 c40 1 46 2 22 5 -19 3 -38 10 -42 16 -4 7 -8 74 -8
150 l0 137 50 0 50 0 0 -34 0 -34 108 0 c111 1 122 5 122 44 0 22 -39 79 -40
57 0 -6 5 -13 11 -15 5 -2 12 -16 13 -30 2 -15 -1 -25 -5 -22 -5 3 -9 11 -9
18 0 11 -23 14 -96 13 -93 0 -113 6 -114 36 0 5 40 7 89 5 49 -1 93 0 97 5 4
4 -11 7 -34 7 l-42 0 -2 83 -1 82 -7 -65 -7 -65 -1 68 c-1 39 2 67 8 67 6 0
10 16 10 35 0 31 -3 35 -25 35 l-25 0 0 -121 0 -120 -73 2 -73 2 -2 108 c-2
69 1 109 8 109 5 0 10 5 10 10 0 6 -11 10 -25 10 -15 0 -25 -6 -25 -14z"/>
</g>
</svg>
